<?xml version="1.0" encoding="utf-8"?>
<!-- Generator: Adobe Illustrator 16.0.0, SVG Export Plug-In . SVG Version: 6.00 Build 0)  -->
<!DOCTYPE svg PUBLIC "-//W3C//DTD SVG 1.1//EN" "http://www.w3.org/Graphics/SVG/1.1/DTD/svg11.dtd">
<svg version="1.1" id="Calque_1" xmlns="http://www.w3.org/2000/svg" xmlns:xlink="http://www.w3.org/1999/xlink" x="0px" y="0px"
	 width="576px" height="576px" viewBox="0 0 576 576" enable-background="new 0 0 576 576" xml:space="preserve">
<path fill-rule="evenodd" clip-rule="evenodd" fill="#F8D103" d="M78.503,316.458c-0.936-2.236-2.011-4.438-1.76-6.966
	c-0.433-5.983-1.703-11.778-4.042-17.325c0.033-0.531,0.066-1.063,0.106-1.586c0.428-0.395,0.629-0.791-0.027-1.163
	c-0.31-0.526-0.619-1.054-0.929-1.581c0.243-3.694,2.978-5.402,5.619-7.315c30.264-21.927,63.775-37.072,99.34-48.077
	c6.717-2.079,13.749-3.35,20.021-6.779c2.878-0.676,5.447-2.64,8.623-2.074c-0.001-0.002-0.029,0.037-0.029,0.037
	c0.378-0.357,0.757-0.717,1.135-1.074c2.623,2.104,2.588,0.305,2.395-1.648c-0.848-8.541-1.194-17.104-1.098-25.687
	c-0.53-1.979,1.503-3.677,0.624-5.692c2.783-5.063,4.397-10.629,6.991-15.926c-1.012,0.13-1.39,0.689-1.63,1.301
	c-2.969,7.548-9.007,11.38-16.36,13.735c-1.384,0.443-2.542,1.548-3.875,2.205c-7.46,3.681-15.39,7.411-23.532,6.991
	c-11.219-0.578-22.171-4.021-32.369-9.059c-9.726-4.803-19.129-10.225-25.512-19.395c-3.615-5.193-3.208-6.486,1.648-9.719
	c1.374-0.662,2.749-1.324,4.123-1.986c1.631-0.189,3.22-0.292,4.854-0.836c13.551-4.508,27.229-8.468,41.53-9.961
	c16.117-1.685,32.167-1.916,48.276,0.291c5.39,0.738,10.623,2.779,16.188,2.201c1.088,0.021,1.987,0.435,2.676,1.285
	c4.948,1.88,4.948,1.88,6.269-1.203c0,0,0.013-0.014,0.013-0.013c2.447,0.566,3.139-1.413,4.18-2.886
	c1.69-1.908,3.794-3.242,6.061-4.354c1.626-0.784,3.31-1.46,4.867-2.354c24.979-14.341,51.833-19.348,80.374-16.544
	c5.05,0.496,9.944,2.617,15.2,1.355c-5.371-1.439-10.743-2.88-16.114-4.319c-0.48-0.53-0.961-1.061-1.441-1.591
	c-1.088-0.158-2.374,0.005-3.232-0.524c-6.682-4.124-13.517-8.059-19.846-12.681c-7.288-5.322-14.106-11.289-21.129-16.977
	c0,0,0.086,0.086,0.085,0.086c-4.033-4.979-8.112-9.919-12.086-14.943c-3.488-4.41-3.389-5.025,2.069-6.169
	c11.698-2.45,23.575-1.958,35.258-0.362c15.388,2.103,28.999,9.197,42.232,16.992c1.045,0.615,1.89,2.439,3.637,1.284l-0.021-0.017
	c-0.06,0.379-0.662,0.621-0.123,1.165s0.787-0.056,1.166-0.11l-0.03-0.041c-0.897,1.382-0.311,1.931,1.125,2.004
	c1.851,2.443,3.701,4.886,5.549,7.322c3.782,3.205,4.357,8.223,6.818,12.22c5.819,9.454,10.661,19.446,13.813,30.165
	c-0.273,0.373-0.546,0.745-0.818,1.117c-3.089-1.779-5.979-3.993-11.018-5.021c2.075,1.41,2.922,2.088,3.857,2.605
	c14.923,8.227,23.14,20.959,26.707,37.516c3.94,18.289,9.56,36.116,18.638,52.65c-0.393,0.336-0.786,0.671-1.179,1.007
	c-4.487-1.438-8.934-2.276-13.663-0.747c-10.896,3.521-18.101,16.209-16.748,29.864c1.437,14.485,7.807,21.442,20.969,22.968
	c1.268,0.146,2.668-0.372,4.144,0.93c-6.122,10.674-14.258,19.918-22.187,29.438c2.081,0.493,2.855-1.028,3.756-2.097
	c6.005-7.128,11.978-14.286,17.114-22.085c8.462-12.847,15.958-26.052,15.11-42.226c-0.087-1.639,0.88-2.338,2.072-3.035
	c10.448-6.114,20.884-12.248,31.326-18.371c2.076-1.217,3.898-1.938,4.844,1.381c0.625,2.194,2.259,2.406,4.363,1.646
	c1.843-0.664,5.476-1.397,5.565-1.141c1.359,3.893,6.795,5.871,7.125,7.751c0.709,4.04,2.829,4.269,5.592,4.686
	c-0.527,2.163-1.938,4.897-0.733,5.562c4.83,2.659,0.928,4.942,0.167,7.387c-0.833,2.677-1.752,5.339-2.382,8.064
	c-6.205,26.824-18.501,50.874-33.467,73.715c-1.713-0.421-2.859,0.547-3.829,1.7c-6.836,8.126-15.896,12.935-25.391,17.107
	c-1.892-9.479-3.782-18.958-5.673-28.438c1.214,20.657,5.479,40.629,13.296,59.996c-5.876,1.827-12.275-0.323-18.039,3.13
	c1.836,0.697,3.348,0.162,4.916-0.151c20.725-4.147,36.864,6.569,44.39,25.086c3.024,7.442,2.619,7.465-3.537,12.162
	c-4.227,3.226-8.227,6.754-12.227,10.263c-0.949,0.832-2.623,1.462-2.106,3.938c7.467-6.74,14.754-12.987,22.794-18.251
	c2.109-1.382,4.424-4.279,6.98-2.088c2.434,2.086,0.281,5.022-0.729,7.34c-1.605,3.681-3.598,7.193-5.427,10.777
	c2.188-1.341,3.371-3.247,4.489-5.189c1.745-3.033,2.952-6.287,4.08-9.598c0.514-1.507,1.622-3.293,3.61-2.784
	c2.035,0.521,1.065,2.432,1.053,3.812c-0.036,3.937-1.429,7.457-3.424,10.77c-2.246,3.729-4.531,7.433-6.801,11.147
	c4.399-3.579,7.049-8.274,9.587-13.06c0.57-1.076,0.785-3.096,2.464-2.63c1.927,0.536,0.712,2.515,0.92,3.841
	c0.099,0.624-0.09,1.324-0.269,1.956c-3.084,10.903-7.797,21.032-14.431,30.242c-1.332-2.746,0.723-5.053,0.974-7.59
	c0.431-4.339,0.51-8.854-2.803-12.08c-3.353-3.266-7.345-2.576-11.456-0.68c-10.041,4.633-17.726,12.203-25.231,19.934
	c-4.585,4.722-9.142,5.616-15.635,3.878c-14.945-4.002-29.767-8-45.876-6.12c-17.561,2.05-34.124,6.812-50.036,13.82
	c-20.018,8.817-39.61,18.578-60.485,25.368c-2.514,0.817-3.943,0.648-5.572-1.235c-5.322-6.156-10.707-12.231-17.181-17.278
	c-8.756-6.826-17.742-12.907-29.551-12.32c-4.599,0.229-7.89,4.044-8.468,8.521c-0.727,5.629,2.6,10.229,3.125,15.479
	c-0.789-0.135-1.127-1.402-2.183-0.867c0,0,0.061,0.052,0.061,0.052c-0.08-2.232-1.945-3.366-3.163-4.803
	c-5.608-6.618-10.468-13.713-14.079-21.602c-0.836-1.826-2.397-3.735-1.096-6.204c1.804,2.595,3.49,5.02,5.7,8.199
	c0.048-3.383-1.521-4.922-2.629-6.619c-1.569-2.4-2.829-4.917-2.877-7.797c-0.025-1.497-0.619-3.62,1.548-4.177
	c1.86-0.477,2.413,1.307,3.161,2.58c1.834,3.124,3.635,6.277,6.321,9.098c0.735-2.346-0.864-3.411-1.649-4.787
	c-1.312-2.301-2.921-4.466-3.96-6.879c-1.686-3.916-0.174-5.783,4.011-5.177c3.16,0.458,5.84,2.161,8.625,3.609
	c8.283,4.308,15.455,10.255,23.109,15.489c1.018,1.464,2.229,2.629,5.492,3.361c-2.297-2.001-3.504-3.052-4.711-4.104
	c-4.977-4.698-10.33-9.069-16.366-12.139c-4.743-2.411-4.754-5.503-3.847-9.667c1.423-6.534,4.058-12.589,7.173-18.43
	c9.846-18.464,18.362-37.341,21.021-58.436c1.776-14.092,1.607-28.184,1.039-42.292c-0.132-3.288-2.159-6.891,3.439-7.209
	c1.436-0.768,2.871-1.535,4.308-2.304c7.438-1.103,10.663-6.324,12.729-12.817c1.143-3.592,0.979-7.236,0.794-10.865
	c-0.759-14.843-9.185-24.588-23.16-26.969c-6.407-1.093-14.34,2.545-16.894,7.747l0.064-0.056c-2.37-0.107-1.938-1.798-1.894-3.305
	c0.104-3.6,0.179-7.201,0.266-10.803c-0.45-5.088-1.81-10.059-1.796-15.229c0.003-1.154-0.078-3.204-2.071-3.542
	c-1.451-0.245-2.391,0.61-3.396,1.622c-4.079,4.103-8.282,8.082-12.436,12.109c-16.832,16.32-32.302,33.779-46.15,52.761
	c-10.658,14.608-20.148,29.854-28.431,45.878c-5.377,10.404-11.338,20.542-15.086,31.725c-2.28-1.148-4.655-2.205-5.027-5.199
	l0.092,0.071c0.443-1.961-0.519-3.558-1.371-5.169c-3.729-7.056-6.977-14.334-9.599-21.862
	C85.333,337.191,81.965,326.808,78.503,316.458z M251.889,414.504c-0.498-1.02-0.84-2.221-2.372-2.035
	c-0.588-0.855-0.831-2.123-2.28-2.099c-1.228,10.818,9.347,21.693,19.959,20.719l0.036,0.264l-0.076-0.255
	c-0.021,1.271,0.842,1.341,1.779,1.311c8.152,5.101,15.93,10.826,24.663,14.959c7.039,3.332,14.599,5.532,21.168,9.897
	c2.35,1.562,4.961,3.442,6.731-0.831c0.365-0.883,1.234-1.156,2.086-0.766c2.219,1.016,3.887,0.916,4.381-1.91
	c0.139-0.796,0.746-1.372,1.322-1.043c3.368,1.924,4.411-0.015,5.112-2.838c0.447-1.802,1.926-1.52,3.24-1.337
	c3.563,0.497,4.626-1.67,5.149-4.609c0.203-1.145-0.82-3.026,1.133-3.297c4.317-0.6,3.745-3.519,3.192-6.346
	c-5.127-26.246-16.465-49.325-35.136-68.645c-0.816-0.845-1.641-1.681-2.978-0.644c5.38,5.483,10.227,11.381,14.635,17.632
	c4.51,6.395,8.596,13.039,11.544,20.325c4.166,10.293,8.408,20.567,10.042,31.656c0.211,1.436,1.237,3.878-1.571,3.669
	c-3.447-0.256-2.776,1.883-2.875,3.804c-0.082,1.609,0.328,4.173-1.612,4.193c-3.561,0.037-6.621-0.125-7.299,4.417
	c-0.119,0.797-0.998,0.562-1.607,0.193c-2.504-1.517-3.649-0.308-4.162,2.103c-0.318,1.496-1.094,1.216-2.149,0.722
	c-1.542-0.723-3.126-0.507-3.824,1.137c-1.304,3.068-2.939,1.581-4.715,0.648c-3.814-2.006-7.531-4.309-11.543-5.807
	c-11.31-4.223-21.514-10.337-31.371-17.181c-1.716-1.191-2.935-3.578-5.623-3.08l0.028,0.06c-1.304-3.238-3.837-5.041-7.056-6.044
	l0.055,0.052c0.445-1.154-0.03-1.382-1.06-1.051l0.061,0.062c-1.323-3.593-4.503-5.559-7.067-8.063L251.889,414.504z
	 M353.525,246.252c-5.014,3.626-10.551,4.236-16.577,3.448c-4.228-0.553-7.967-2.229-11.814-3.734
	c-4.722-1.846-9.502-2.477-13.854,0.524c-3.665,2.527-7.205,5.371-10.301,8.56c-4.597,4.733-9.482,8.307-16.494,7.534
	c-0.054-0.006-0.164,0.502-0.318,0.997c4.499-0.631,6.252,1.881,7.859,5.685c4.135,9.784,8.93,19.285,15.272,27.882
	c4.643,6.291,9.203,12.702,15.889,17.091c6.335,4.158,10.926,3.313,15.347-2.8c2.438-3.371,3.948-7.199,5.37-11.092
	c4.609-12.622,4.138-25.766,4.012-38.848c-0.054-5.569-0.897-11.186,5.683-13.95c0.221-0.093,0.279-0.569,0.414-0.868
	c0.833-0.225,0.965-0.666,0.411-1.322C354.124,245.656,353.824,245.954,353.525,246.252z M249.42,249.815
	c10.658-0.035,18.014-6.99,18.051-17.07c0.042-11.201-6.607-18.273-17.192-18.287c-9.757-0.012-17.336,7.587-17.328,17.374
	C232.959,242.437,239.745,249.847,249.42,249.815z M358.786,202.584c-0.059,11.964,6.547,18.907,18.048,18.971
	c9.459,0.052,15.771-6.069,15.858-15.38c0.091-9.731-8.4-18.227-18.448-18.455C364.729,187.503,358.833,193.173,358.786,202.584z
	 M337.057,350.625c9.151,0.1,15.918-2.395,21.335-8.196c0.788-0.844,1.718-1.724,1.052-3.035c-0.555-1.091-1.685-0.858-2.646-0.884
	c-1.161-0.031-2.391-0.227-3.477,0.068c-9.85,2.675-19.886,3.319-30.03,2.995c-1.512-0.049-3.391,0.185-3.866,1.648
	c-0.622,1.913,1.352,3.077,2.671,3.69C327.22,349.295,332.521,351.231,337.057,350.625z M273.683,334.417
	c-11.014-5.512-22.386-10.321-32.87-16.871C250.513,325.632,261.878,330.454,273.683,334.417z M313.705,222.405
	c-1.753,0.143-4.299-0.27-4.468,2.404c-0.11,1.73,1.672,2.758,3.549,2.638c1.927-0.123,3.657-0.87,4.014-2.976
	C317.208,222.067,315.3,222.475,313.705,222.405z M440.394,442.801c2.636-1.421,4.736-3.252,6.07-6.971
	C443.401,438.093,441.681,440.276,440.394,442.801z"/>
<path fill-rule="evenodd" clip-rule="evenodd" fill="#EBA539" d="M104.828,379.655c3.749-11.183,9.709-21.32,15.086-31.725
	c8.283-16.023,17.773-31.27,28.431-45.878c13.848-18.981,29.318-36.44,46.15-52.761c4.154-4.027,8.356-8.007,12.436-12.109
	c1.006-1.012,1.945-1.867,3.396-1.622c1.993,0.338,2.074,2.388,2.071,3.542c-0.014,5.17,1.346,10.141,1.8,15.219
	c-1.671,0.638-1.163,2.047-1.214,3.313c-0.186,4.607-0.378,9.189-0.896,13.807c-1.27,11.332,0.341,22.079,9.765,30.104l-0.053-0.057
	c1.933,3.202,4.066,6.175,8.03,7.069l-0.037-0.039c-0.216,2.429,1.995,3.828,2.285,6.403c0.803,7.126,0.829,14.251,0.988,21.366
	c0.344,15.301-1.359,30.396-5.234,45.246c-0.821,3.149-2.229,4.146-5.46,4.028c-6.969-0.253-13.965-0.26-20.931,0.053
	c-3.612,0.163-4.167-1.193-3.641-4.287c1.137-6.681,2.079-13.394,3.101-20.093c-0.208-1.304-0.027-2.499,0.954-3.476
	c4.056-15.617,8.099-31.238,13.697-47.326c-1.887,0.657-2.682,0.827-3.375,1.19c-36.286,19.004-69.876,42.15-102.491,66.79
	c-0.637,0.481-1.935,0.936-0.78,2.157c0,0-0.014,0.015-0.013,0.014C107.834,378.981,105.587,382.576,104.828,379.655z"/>
<path fill-rule="evenodd" clip-rule="evenodd" fill="#EBA539" d="M210.036,499.307c-1.723-1.92-3.446-3.84-5.17-5.761
	c-0.341-0.347-0.682-0.694-1.023-1.041V492.5c-0.525-5.25-3.852-9.85-3.125-15.479c0.578-4.477,3.87-8.292,8.468-8.521
	c11.809-0.587,20.795,5.494,29.551,12.32c6.474,5.047,11.858,11.122,17.181,17.278c1.629,1.884,3.059,2.053,5.572,1.235
	c20.875-6.79,40.468-16.551,60.485-25.368c15.912-7.009,32.476-11.771,50.036-13.82c16.109-1.88,30.931,2.118,45.876,6.12
	c6.493,1.738,11.05,0.844,15.635-3.878c7.506-7.73,15.19-15.301,25.231-19.934c4.111-1.896,8.104-2.586,11.456,0.68
	c3.313,3.227,3.233,7.741,2.803,12.08c-0.251,2.537-2.306,4.844-0.974,7.59c-3.124,6.273-7.664,11.551-11.959,16.999
	c-8.487,8.972-17.524,17.282-28.346,23.424c-1.871,1.062-3.756,2.177-5.766,2.903c-7.259,2.625-11.268-0.418-11.095-8.175
	c0.035-1.596,0.986-3.264-0.206-4.854c-1.32,0.021-0.973,1.133-0.953,1.748c0.122,3.807-1.797,4.253-5.056,3.624
	c-14.377-2.774-28.92-3.242-43.53-3.095c-27.088,0.274-52.98,6.172-78.181,15.779c-5.851,2.23-11.685,4.563-17.963,5.688
	c-2.727,0.489-2.89-0.264-3.388-2.359c-0.839-3.534-2.253-6.893-5.358-10.384c1.384,4.35,2.792,7.797,3.556,11.383
	c1.565,7.343-1.949,11.114-9.427,10.448c-6.477-0.577-12.065-3.536-17.488-6.798C227.308,513.383,218.758,506.225,210.036,499.307z"
	/>
<path fill-rule="evenodd" clip-rule="evenodd" fill="#352A1F" d="M354.012,246.681c-0.135,0.299-0.193,0.775-0.414,0.868
	c-6.58,2.765-5.736,8.381-5.683,13.95c0.126,13.082,0.598,26.226-4.012,38.848c-1.422,3.893-2.932,7.721-5.37,11.092
	c-4.421,6.112-9.012,6.958-15.347,2.8c-6.686-4.389-11.246-10.8-15.889-17.091c-6.343-8.597-11.138-18.098-15.272-27.882
	c-1.607-3.804-3.36-6.315-7.859-5.685c0.154-0.495,0.265-1.003,0.318-0.997c7.012,0.772,11.897-2.801,16.494-7.534
	c3.096-3.188,6.636-6.032,10.301-8.56c4.353-3.001,9.133-2.37,13.854-0.524c3.848,1.505,7.587,3.182,11.814,3.734
	c6.026,0.788,11.563,0.178,16.577-3.448C353.69,246.392,353.853,246.534,354.012,246.681z M326.275,266.524
	c-11.617,0.194-19.981,6.049-23.376,15.908c-0.499,1.451-1.04,2.75-0.123,4.235c5.944,9.637,11.992,19.236,21.497,25.843
	c5.65,3.928,9.144,3.027,12.928-2.614c4.921-7.338,6.671-15.721,8.185-24.234c1.709-9.614-0.366-13.632-9.422-17.313
	C332.681,267.016,329.313,266.267,326.275,266.524z"/>
<g>
	<path fill-rule="evenodd" clip-rule="evenodd" fill="#352A1F" d="M250.278,214.458c-9.757-0.012-17.336,7.587-17.328,17.374
		c0.009,10.604,6.795,18.015,16.47,17.983c10.658-0.035,18.014-6.99,18.051-17.07C267.513,221.544,260.863,214.472,250.278,214.458z
		 M253.117,230.403c-4.122-0.359-6.172-2.877-6.221-6.928c-0.049-4.101,3.164-7.046,7.382-6.955c3.483,0.074,6.58,3.508,6.576,7.291
		C260.85,227.59,257.258,230.763,253.117,230.403z"/>
	<path fill-rule="evenodd" clip-rule="evenodd" fill="#352A1F" d="M374.244,187.72c-9.515-0.217-15.411,5.453-15.458,14.864
		c-0.059,11.964,6.547,18.907,18.048,18.971c9.459,0.052,15.771-6.069,15.858-15.38C392.783,196.443,384.292,187.948,374.244,187.72
		z M368.07,205.97c-4.014,0.033-6.694-2.445-6.827-6.314c-0.132-3.813,2.861-6.945,6.772-7.088c4.014-0.147,6.679,2.621,6.654,6.914
		C374.648,203.413,372.083,205.935,368.07,205.97z"/>
</g>
<path fill-rule="evenodd" clip-rule="evenodd" fill="#EBA539" d="M337.057,350.625c-4.535,0.606-9.837-1.33-14.961-3.713
	c-1.319-0.613-3.293-1.777-2.671-3.69c0.476-1.464,2.354-1.697,3.866-1.648c10.145,0.324,20.181-0.32,30.03-2.995
	c1.086-0.295,2.315-0.1,3.477-0.068c0.961,0.025,2.091-0.207,2.646,0.884c0.666,1.312-0.264,2.191-1.052,3.035
	C352.975,348.23,346.208,350.725,337.057,350.625z"/>
<path fill-rule="evenodd" clip-rule="evenodd" fill="#EBA539" d="M455.34,331.726c-6.204,10.525-14.063,19.678-23.038,27.926
	c-2.479,2.277-4.051,2.888-4.527-1.402c-0.29-2.602-1.086-5.147-1.654-7.717c9.494-4.172,18.555-8.98,25.391-17.106
	C452.48,332.272,453.627,331.305,455.34,331.726z"/>
<path fill-rule="evenodd" clip-rule="evenodd" fill="#EBA539" d="M266.868,429.432c0.108,0.554,0.217,1.107,0.326,1.659
	c-10.611,0.973-21.186-9.902-19.958-20.721c1.449-0.024,1.692,1.243,2.28,2.097c0.606,0.892,0.677,2.41,2.372,2.037l-0.06-0.057
	c1.087,3.8,3.719,6.245,7.067,8.063l-0.061-0.062c-0.091,0.797,0.233,1.177,1.06,1.051l-0.055-0.052
	c1.642,2.843,3.798,5.087,7.056,6.044L266.868,429.432z"/>
<path fill-rule="evenodd" clip-rule="evenodd" fill="#352A1F" d="M313.705,222.405c1.595,0.069,3.503-0.338,3.095,2.066
	c-0.356,2.105-2.087,2.853-4.014,2.976c-1.877,0.12-3.659-0.907-3.549-2.638C309.406,222.136,311.952,222.548,313.705,222.405z"/>
<g>
	<path fill-rule="evenodd" clip-rule="evenodd" d="M286.671,88.61c-0.791,1.546,0.81,1.907,1.465,2.562
		c5.415,5.405,11.203,10.404,17.317,14.998c6.426,4.829,12.986,9.478,20.503,14.943c-3.495,0-5.746-0.009-7.997,0.001
		c-22.757,0.1-44.241,5.211-64.135,16.438c-2.147,1.211-4.85,1.896-5.812,4.647c1.626-0.784,3.31-1.46,4.867-2.354
		c24.979-14.341,51.833-19.348,80.374-16.544c5.05,0.496,9.944,2.617,15.2,1.355c-5.371-1.439-10.743-2.88-16.114-4.319
		c-0.48-0.53-0.961-1.061-1.431-1.587c-1.099-0.162-2.385,0.001-3.243-0.528c-6.682-4.124-13.517-8.059-19.846-12.681
		c-7.272-5.311-14.077-11.263-21.084-16.94c-4.02-4.962-8.085-9.886-12.046-14.894c-3.488-4.41-3.389-5.025,2.069-6.169
		c11.698-2.45,23.575-1.958,35.258-0.362c15.388,2.103,28.999,9.197,42.232,16.992c1.038,0.611,1.88,2.413,3.604,1.303
		c-0.09,0.358-0.633,0.603-0.111,1.129c0.507,0.512,0.758,0.016,1.102-0.09c-0.837,1.334-0.254,1.871,1.159,1.943
		c-0.269-0.721,0.082-1.789-1.101-1.997c-0.036-0.64-0.336-1.021-1.023-1.019c-0.383-0.701-0.658-1.495-1.171-2.081
		c-24.909-28.409-55.704-47.323-92.225-56.868c-5.948-1.555-11.979-3.165-18.431-2.888c5.196,17.484,19.275,42.426,32.23,56.81
		C280.884,83.297,282.61,87.194,286.671,88.61z"/>
	<path fill-rule="evenodd" clip-rule="evenodd" d="M170.316,200.028c7.096-1.57,14.533-2.688,20.792-6.265
		c5.164-2.95,11.161-2.546,16.099-5.563c0.113-0.068,0.836,0.861,1.275,1.326c2.783-5.063,4.397-10.629,6.991-15.926
		c-1.012,0.13-1.39,0.689-1.63,1.301c-2.969,7.548-9.007,11.38-16.36,13.735c-1.384,0.443-2.542,1.548-3.875,2.205
		c-7.46,3.681-15.39,7.411-23.532,6.991c-11.219-0.578-22.171-4.021-32.369-9.059c-9.726-4.803-19.129-10.225-25.512-19.395
		c-3.615-5.193-3.208-6.486,1.648-9.719c-1.797-0.821-3.287,0.293-4.699,0.979c-6.415,3.11-12.835,6.227-19.098,9.629
		c-10.033,5.449-19.469,11.811-28.587,19.218c0.782,0.538,1.112,0.854,1.507,1.023C97.712,205.379,133.535,208.165,170.316,200.028z
		"/>
	<path fill-rule="evenodd" clip-rule="evenodd" d="M365.553,95.776c-0.168-0.265-0.339-0.535-0.51-0.805
		c0.004,0.115-0.041,0.273,0.018,0.343c1.208,1.406,2.354,2.845,3.462,4.304C367.772,98.201,366.855,96.88,365.553,95.776z"/>
	<path fill-rule="evenodd" clip-rule="evenodd" d="M435.516,359.126c1.232-1.118,2.482-2.237,3.579-3.484
		c22.585-25.676,38.843-54.869,48.852-87.581c2.249-7.351,2.921-15.263,7.514-21.832c0.654-0.937,0.893-2.979,0.064-3.174
		c-3.712-0.87-2.559-3.356-2.366-5.669c0.129-1.555-0.746-2.5-2.277-2.766c-1.091-0.189-2.313,0.098-2.234-1.803
		c0.21-5.064-8.425-4.072-7.018-10.063c-0.813-0.094-1.656-0.371-2.434-0.246c-1.944,0.316-3.939,0.605-5.76,1.306
		c-1.547,0.595-2.336,0.645-2.87-1.141c-1.292-4.32-3.904-3.464-6.872-1.729c-9.698,5.668-19.494,11.17-29.142,16.921
		c-2.73,1.628-4.53,2.99-4.984-1.772c-0.193-2.021-1.451-4.02-2.509-5.866c-10.493-18.319-16.385-38.289-21.245-58.646
		c-2.388-9.999-6.244-19.257-14.032-26.413c-1.489-1.369-2.405-3.041-3.089-5.009c-5.002-14.412-10.918-28.357-20.17-40.54
		c1.428,2.7,2.235,5.757,3.849,8.377c5.819,9.454,10.661,19.446,13.813,30.165c-0.273,0.373-0.546,0.745-0.818,1.117
		c-3.089-1.779-5.979-3.993-11.018-5.021c2.075,1.41,2.922,2.088,3.857,2.605c14.923,8.227,23.14,20.959,26.707,37.516
		c3.94,18.289,9.56,36.116,18.638,52.65c-0.393,0.336-0.786,0.671-1.178,1.006c-4.488-1.438-8.935-2.275-13.664-0.746
		c-10.896,3.521-18.101,16.209-16.748,29.864c1.437,14.485,7.807,21.442,20.969,22.968c1.268,0.146,2.668-0.372,4.144,0.93
		c-6.122,10.674-14.258,19.918-22.187,29.438c2.081,0.493,2.855-1.028,3.756-2.097c6.005-7.128,11.978-14.286,17.114-22.085
		c8.462-12.847,15.958-26.052,15.11-42.226c-0.087-1.639,0.88-2.338,2.072-3.035c10.448-6.114,20.884-12.248,31.326-18.371
		c2.076-1.217,3.898-1.938,4.844,1.381c0.625,2.194,2.259,2.406,4.363,1.646c1.843-0.664,5.476-1.397,5.565-1.141
		c1.359,3.893,6.795,5.871,7.125,7.751c0.709,4.04,2.829,4.269,5.592,4.686c-0.527,2.163-1.938,4.897-0.733,5.562
		c4.83,2.659,0.928,4.942,0.167,7.387c-0.833,2.677-1.752,5.339-2.382,8.064c-6.205,26.824-18.501,50.874-33.467,73.715
		c-6.204,10.525-14.063,19.678-23.038,27.926c-2.479,2.277-4.051,2.888-4.527-1.402c-0.29-2.602-1.086-5.147-1.654-7.717
		c-1.892-9.479-3.782-18.957-5.673-28.437c1.214,20.657,5.479,40.629,13.296,59.996c-5.876,1.827-12.275-0.323-18.039,3.13
		c1.836,0.697,3.348,0.162,4.916-0.151c20.725-4.147,36.864,6.569,44.39,25.086c3.024,7.442,2.619,7.465-3.537,12.162
		c-4.227,3.226-8.227,6.754-12.227,10.263c-0.949,0.832-2.623,1.462-2.106,3.938c7.467-6.74,14.754-12.987,22.794-18.251
		c2.109-1.382,4.424-4.279,6.98-2.088c2.434,2.086,0.281,5.022-0.729,7.34c-1.605,3.681-3.598,7.193-5.427,10.777
		c2.188-1.341,3.371-3.247,4.489-5.189c1.745-3.033,2.952-6.287,4.08-9.598c0.514-1.507,1.622-3.293,3.61-2.784
		c2.035,0.521,1.065,2.432,1.053,3.812c-0.036,3.937-1.429,7.457-3.424,10.77c-2.246,3.729-4.531,7.433-6.801,11.147
		c4.399-3.579,7.049-8.274,9.587-13.06c0.57-1.076,0.785-3.096,2.464-2.63c1.927,0.536,0.712,2.515,0.92,3.841
		c0.099,0.624-0.09,1.324-0.269,1.956c-3.084,10.903-7.797,21.032-14.432,30.243c-3.123,6.272-7.663,11.55-11.958,16.998
		c-8.487,8.972-17.524,17.282-28.346,23.424c-1.871,1.062-3.756,2.177-5.766,2.903c-7.259,2.625-11.268-0.418-11.095-8.175
		c0.035-1.596,0.986-3.264-0.206-4.854c-1.32,0.021-0.973,1.133-0.953,1.748c0.122,3.807-1.797,4.253-5.056,3.624
		c-14.377-2.774-28.92-3.242-43.53-3.095c-27.088,0.274-52.98,6.172-78.181,15.779c-5.851,2.23-11.685,4.563-17.963,5.688
		c-2.727,0.489-2.89-0.264-3.388-2.359c-0.839-3.534-2.253-6.893-5.358-10.384c1.384,4.35,2.792,7.797,3.556,11.383
		c1.565,7.343-1.949,11.114-9.427,10.448c-6.477-0.577-12.065-3.536-17.488-6.798c-9.571-5.755-18.121-12.913-26.843-19.831
		c-1.723-1.92-3.446-3.84-5.169-5.76c-0.341-0.348-0.683-0.694-1.024-1.042V492.5c-0.775-0.133-1.119-1.349-2.132-0.885
		c-0.117-2.184-1.949-3.313-3.153-4.733c-5.608-6.618-10.468-13.713-14.079-21.602c-0.836-1.826-2.397-3.735-1.096-6.204
		c1.804,2.595,3.49,5.02,5.7,8.199c0.048-3.383-1.521-4.922-2.629-6.619c-1.569-2.4-2.829-4.917-2.877-7.797
		c-0.025-1.497-0.619-3.62,1.548-4.177c1.86-0.477,2.413,1.307,3.161,2.58c1.834,3.124,3.635,6.277,6.321,9.098
		c0.735-2.346-0.864-3.411-1.649-4.787c-1.312-2.301-2.921-4.466-3.96-6.879c-1.686-3.916-0.174-5.783,4.011-5.177
		c3.16,0.458,5.84,2.161,8.625,3.609c8.283,4.308,15.455,10.255,23.109,15.489c1.018,1.464,2.229,2.629,5.492,3.361
		c-2.297-2.001-3.504-3.052-4.711-4.104c-4.977-4.698-10.33-9.069-16.366-12.139c-4.743-2.411-4.754-5.503-3.847-9.667
		c1.423-6.534,4.058-12.589,7.173-18.43c9.846-18.464,18.362-37.341,21.021-58.436c1.776-14.092,1.607-28.184,1.039-42.292
		c-0.132-3.288-2.159-6.891,3.439-7.209c-3.5-0.506-4.704-4.639-8.179-5.182c-2.241-2.798-4.05-6.087-7.938-7.015
		c0.743-2.544-1.707-3.481-2.715-5.08c-5.566-8.831-7.673-17.991-3.336-27.962c4.8-2.598,8.836-6.598,15.099-6.181
		c11.705,0.781,19.734,7.841,22.638,20.685c2.973,13.153-0.849,22.801-11.261,28.431c7.438-1.103,10.663-6.324,12.729-12.817
		c1.143-3.592,0.979-7.236,0.794-10.865c-0.759-14.843-9.185-24.588-23.16-26.969c-6.383-1.088-14.275,2.518-16.86,7.688
		c-2.333-0.122-1.906-1.802-1.862-3.302c0.104-3.6,0.179-7.201,0.27-10.813c-1.671,0.638-1.163,2.047-1.214,3.313
		c-0.186,4.607-0.378,9.189-0.896,13.807c-1.268,11.314,0.338,22.044,9.723,30.065c1.923,3.185,4.051,6.137,7.981,7.04
		c-0.196,2.411,1.997,3.811,2.286,6.376c0.803,7.126,0.829,14.251,0.988,21.366c0.344,15.301-1.359,30.396-5.234,45.246
		c-0.821,3.149-2.229,4.146-5.46,4.028c-6.969-0.253-13.965-0.26-20.931,0.053c-3.612,0.163-4.167-1.193-3.641-4.287
		c1.137-6.681,2.079-13.394,3.101-20.093c-3.754,7.106-3.675,15.07-5.113,22.699c-0.646,3.427,0.905,3.897,3.82,3.461
		c7.603-1.137,15.255-0.656,22.901-0.487c3.069,0.067,3.704,1.001,2.387,3.809c-1.671,3.563-2.91,7.327-4.514,10.925
		c-6.391,14.349-15.955,27.381-17.785,43.74c-2.346-1.062-4.391-2.108-6.523-2.928c-4.757-1.827-13.586,2.441-14.086,7.403
		c-0.64,6.359-2.127,12.872,1.989,19.036c3.297,4.937,5.937,10.373,9.804,14.887c2.395,2.795,3.651,6.904,7.889,7.891
		c1.038,3.972,4.658,5.713,7.239,8.353c3.998,4.276,8.768,7.649,13.396,11.154c8.58,6.497,17.268,12.893,27.88,15.832
		c6.547,1.813,13.763,0.513,14.615-3.665c1.006-4.93,4.127-4.811,7.444-5.492c1.277-0.262,2.525-0.693,3.765-1.113
		c23.704-8.027,47.095-16.888,72.521-18.679c20.938-1.476,41.657-1.421,62.31,2.483c1.221,0.23,2.17,0.618,2.83,1.728
		c4.303,7.227,7.118,8.34,14.567,4.659c12.811-6.33,23.701-15.184,32.752-26.267c11.691-12.684,20.483-27.145,25.83-43.534
		c1.387-4.252,4.997-9.24-0.843-13.363c-0.401-0.283-0.095-1.575-0.107-2.398c-0.062-3.905,1.182-9.166-5.942-5.751
		c-0.742,0.355-0.845-0.282-1.111-0.588c-2.585-2.96-5.113-1.225-7.563,0.146c-1.757,0.981-2.752,1.975-3.462-1.258
		c-3.246-14.791-12.676-24.553-26.587-29.572c-4.097-1.478-6.311-3.255-7.354-7.158c-0.379-1.422-1.129-2.74-1.658-4.126
		C429.093,364.938,429.104,364.942,435.516,359.126z M419.882,276.384c-0.977,1.837-2.293,2.031-4.023,2.131
		c-11.143,0.639-18.385-4.42-21.027-15.432c-2.697-11.231-1.594-21.83,7.365-30.262c3.74-3.52,8.367-5.419,13.606-4.684
		c10.466,1.469,13.186,5.465,13.167,18.782C429.015,257.688,424.804,267.127,419.882,276.384z"/>
	<path fill-rule="evenodd" clip-rule="evenodd" d="M212.639,314.241c-4.519,13.386-8.254,26.694-11.321,40.184
		c-0.267,1.171-1.433,2.515,0.54,3.335c4.056-15.617,8.099-31.238,13.697-47.326c-1.887,0.657-2.682,0.827-3.375,1.19
		c-36.286,19.004-69.876,42.15-102.491,66.79c-0.637,0.481-1.935,0.936-0.78,2.157c1.501-1.002,3.058-1.931,4.496-3.017
		c29.823-22.512,60.699-43.422,93.496-61.401C208.512,315.27,210.058,313.835,212.639,314.241z"/>
	<path fill-rule="evenodd" clip-rule="evenodd" d="M196.832,225.665c-1.503-0.488-2.867-0.093-4.337,0.386
		c-7.844,2.552-15.734,4.962-23.6,7.451c-34.151,10.808-65.905,26.382-94.829,47.614c-2.475,1.817-4.674,3.419-2.215,6.721
		c0.243-3.694,2.978-5.402,5.619-7.315c30.264-21.927,63.775-37.072,99.34-48.077C183.527,230.365,190.559,229.095,196.832,225.665z
		"/>
	<path fill-rule="evenodd" clip-rule="evenodd" d="M164.352,146.878c16.117-1.685,32.167-1.916,48.276,0.291
		c5.39,0.738,10.623,2.779,16.188,2.201c-8.648-3.703-17.931-4.393-27.074-4.746c-14.791-0.57-29.491-1.207-44.319,2.555
		c-6.116,1.553-13.121,1.838-19.508,3.473c-6.807,1.743-13.86,3.106-19.947,7.023c1.631-0.189,3.22-0.292,4.854-0.836
		C136.373,152.331,150.051,148.371,164.352,146.878z"/>
	<path fill-rule="evenodd" clip-rule="evenodd" d="M98.522,369.358c-3.729-7.056-6.977-14.334-9.599-21.862
		c-3.59-10.305-6.958-20.688-10.42-31.038c-0.113-0.116-0.225-0.232-0.337-0.35c0.019,0.166,0.049,0.331,0.055,0.497
		c0.184,5.181,2.049,9.97,3.593,14.81c4.753,14.898,9.764,29.702,18.08,43.112C100.336,372.566,99.374,370.97,98.522,369.358z"/>
	<path fill-rule="evenodd" clip-rule="evenodd" d="M208.955,220.905c-0.848-8.541-1.194-17.104-1.098-25.687
		c-0.347,0.511-0.991,1.019-0.996,1.532c-0.066,6.602-0.521,13.215,0.517,19.791c0.327,2.069,1.077,4.229-0.817,6.012
		C209.184,224.657,209.148,222.858,208.955,220.905z"/>
	<path fill-rule="evenodd" clip-rule="evenodd" d="M76.743,309.492c-0.433-5.983-1.703-11.778-4.042-17.325
		C73.383,298.095,73.701,304.106,76.743,309.492z"/>
	<path fill-rule="evenodd" clip-rule="evenodd" d="M101.853,377.938c-0.468-1.359-1.1-2.436-2.052-3.481
		C100.003,376.083,100.805,377.129,101.853,377.938z"/>
	<path fill-rule="evenodd" clip-rule="evenodd" d="M104.828,379.655c-1.042-0.524-2.094-1.039-2.975-1.718
		c0.11,0.318,0.219,0.637,0.312,0.992c1.243,4.764,3.318,5.066,6.73,1.655C107.834,378.981,105.587,382.576,104.828,379.655z"/>
	<path fill-rule="evenodd" clip-rule="evenodd" d="M237.761,149.452c-1.917,1.297-4.188,0.754-6.269,1.203
		C236.44,152.535,236.44,152.535,237.761,149.452z"/>
	<path fill-rule="evenodd" clip-rule="evenodd" d="M241.953,146.554c-2.233-0.256-3.239,1.268-4.18,2.886
		C240.221,150.006,240.912,148.026,241.953,146.554z"/>
	<path fill-rule="evenodd" clip-rule="evenodd" d="M72.78,289.418c-0.717,0.398-0.492,0.779,0.027,1.163
		C73.235,290.187,73.437,289.79,72.78,289.418z"/>
	<path fill-rule="evenodd" clip-rule="evenodd" d="M205.425,223.628c0,0,0.031-0.037,0.029-0.037
		C205.454,223.589,205.425,223.628,205.425,223.628z"/>
	<path fill-rule="evenodd" clip-rule="evenodd" d="M343.921,440.634c4.317-0.6,3.745-3.519,3.192-6.346
		c-5.127-26.246-16.465-49.325-35.136-68.645c-0.816-0.845-1.641-1.681-2.978-0.644c5.38,5.483,10.227,11.381,14.635,17.632
		c4.51,6.395,8.596,13.039,11.544,20.325c4.166,10.293,8.408,20.567,10.042,31.656c0.211,1.436,1.237,3.878-1.571,3.669
		c-3.447-0.256-2.776,1.883-2.875,3.804c-0.082,1.609,0.328,4.173-1.612,4.193c-3.561,0.037-6.621-0.125-7.299,4.417
		c-0.119,0.797-0.998,0.562-1.607,0.193c-2.504-1.517-3.649-0.308-4.162,2.103c-0.318,1.496-1.094,1.216-2.149,0.722
		c-1.542-0.723-3.126-0.507-3.824,1.137c-1.304,3.068-2.939,1.581-4.715,0.648c-3.814-2.006-7.531-4.309-11.543-5.807
		c-11.31-4.223-21.514-10.337-31.371-17.181c-1.716-1.191-2.935-3.578-5.623-3.08c-1.302-3.177-3.797-4.961-6.963-5.962
		c0.42-1.114-0.042-1.343-1.04-1.029c-1.33-3.52-4.441-5.479-6.978-7.938c-0.498-1.02-0.84-2.219-2.371-2.035
		c0.602,0.884,0.68,2.379,2.334,2.041c1.091,3.74,3.685,6.163,6.986,7.967c-0.078,0.768,0.24,1.137,1.037,1.024
		c1.634,2.813,3.778,5.032,7.005,5.985c0.105,0.536,0.21,1.072,0.316,1.606c0-0.001,0.003,0.016,0.006,0.04
		c-0.015-0.011-0.03-0.022-0.045-0.033c-0.021,1.271,0.842,1.341,1.779,1.312c8.152,5.1,15.93,10.825,24.663,14.958
		c7.039,3.332,14.599,5.532,21.168,9.897c2.35,1.562,4.961,3.442,6.731-0.831c0.365-0.883,1.234-1.156,2.086-0.766
		c2.219,1.016,3.887,0.916,4.381-1.91c0.139-0.796,0.746-1.372,1.322-1.043c3.368,1.924,4.411-0.015,5.112-2.838
		c0.447-1.802,1.926-1.52,3.24-1.337c3.563,0.497,4.626-1.67,5.149-4.609C342.991,442.786,341.968,440.904,343.921,440.634z"/>
	<path fill-rule="evenodd" clip-rule="evenodd" d="M240.813,317.546c9.7,8.086,21.065,12.908,32.87,16.871
		C262.669,328.905,251.297,324.096,240.813,317.546z"/>
	<path fill-rule="evenodd" clip-rule="evenodd" d="M440.394,442.801c2.636-1.421,4.736-3.252,6.07-6.971
		C443.401,438.093,441.681,440.276,440.394,442.801z"/>
	<path fill-rule="evenodd" clip-rule="evenodd" d="M354.012,246.681c0.833-0.225,0.965-0.666,0.411-1.322
		c-0.299,0.298-0.599,0.596-0.897,0.894C353.69,246.392,353.853,246.534,354.012,246.681z"/>
</g>
<g>
	<path fill-rule="evenodd" clip-rule="evenodd" fill="#E84958" d="M221.854,301.545c0.004-0.014,0.005-0.025,0.009-0.039
		c-0.021-0.005-0.042-0.013-0.063-0.018C221.801,301.488,221.854,301.545,221.854,301.545z"/>
	<path fill-rule="evenodd" clip-rule="evenodd" fill="#E84958" d="M229.831,308.558c-0.01-0.013-0.02-0.025-0.029-0.037
		c-0.003-0.001-0.005-0.002-0.008-0.002L229.831,308.558z"/>
	<path fill-rule="evenodd" clip-rule="evenodd" fill="#E84958" d="M215.758,268.494c0.019-0.01,0.036-0.021,0.055-0.03
		c0.003-0.009,0.006-0.017,0.01-0.025L215.758,268.494z"/>
	<path fill-rule="evenodd" clip-rule="evenodd" fill="#E84958" d="M230.911,262.283c-6.262-0.417-10.299,3.583-15.099,6.181
		c-4.337,9.971-2.23,19.131,3.336,27.962c1.008,1.599,3.458,2.536,2.715,5.08c3.888,0.928,5.697,4.217,7.938,7.015
		c3.475,0.543,4.679,4.676,8.179,5.182c1.436-0.768,2.871-1.535,4.308-2.304c10.412-5.63,14.233-15.277,11.261-28.431
		C250.646,270.124,242.616,263.064,230.911,262.283z"/>
	<path fill-rule="evenodd" clip-rule="evenodd" fill="#E84958" d="M415.803,228.138c-5.239-0.735-9.866,1.164-13.606,4.684
		c-8.959,8.432-10.063,19.03-7.365,30.262c2.643,11.012,9.885,16.07,21.027,15.432c1.73-0.1,3.047-0.294,4.023-2.131
		c4.922-9.257,9.133-18.695,9.088-29.464C428.988,233.603,426.269,229.606,415.803,228.138z"/>
	<path fill-rule="evenodd" clip-rule="evenodd" fill="#E84958" d="M335.964,268.35c-3.283-1.334-6.65-2.083-9.688-1.825
		c-11.617,0.194-19.981,6.049-23.376,15.908c-0.499,1.451-1.04,2.75-0.123,4.235c5.944,9.637,11.992,19.236,21.497,25.843
		c5.65,3.928,9.144,3.027,12.928-2.614c4.921-7.338,6.671-15.721,8.185-24.234C347.095,276.048,345.02,272.03,335.964,268.35z"/>
</g>
<g>
	<path fill-rule="evenodd" clip-rule="evenodd" fill="#FFFFFF" d="M254.278,216.521c-4.218-0.091-7.431,2.854-7.382,6.955
		c0.049,4.051,2.099,6.568,6.221,6.928c4.141,0.359,7.732-2.813,7.737-6.592C260.858,220.028,257.762,216.595,254.278,216.521z"/>
	<path fill-rule="evenodd" clip-rule="evenodd" fill="#FFFFFF" d="M368.016,192.567c-3.911,0.143-6.904,3.275-6.772,7.088
		c0.133,3.869,2.813,6.348,6.827,6.314c4.013-0.035,6.578-2.557,6.6-6.488C374.694,195.188,372.029,192.42,368.016,192.567z"/>
</g>
</svg>
